<?xml version="1.0"?>
<!DOCTYPE svg PUBLIC "-//W3C//DTD SVG 1.1//EN" "http://www.w3.org/Graphics/SVG/1.1/DTD/svg11.dtd">
<svg xmlns="http://www.w3.org/2000/svg" xmlns:xl="http://www.w3.org/1999/xlink" version="1.1" viewBox="158 183 48 220" width="4pc" height="220pt"><metadata xmlns:dc="http://purl.org/dc/elements/1.1/"><dc:date>2012-10-22 03:18Z</dc:date><!-- Produced by OmniGraffle Professional 5.4.2 --></metadata><defs></defs><g stroke="none" stroke-opacity="1" stroke-dasharray="none" fill="none" fill-opacity="1"><title>Canvas 1</title><rect fill="white" width="576.00002" height="733"/><g><title>Layer 1</title><path d="M 160 183 L 183 194.5 L 160 206 Z" fill="#a3a3a3"/><rect x="188" y="183" width="6" height="23" fill="#a3a3a3"/><rect x="198" y="183" width="6" height="23" fill="#a3a3a3"/><path d="M 162 242 L 185 253.5 L 162 265 Z" fill="#d9d9d9"/><rect x="190" y="242" width="6" height="23" fill="#d9d9d9"/><rect x="200" y="242" width="6" height="23" fill="#d9d9d9"/><path d="M 159 307 L 182 318.5 L 159 330 Z" fill="#e6e6e6"/><rect x="187" y="307" width="6" height="23" fill="#e6e6e6"/><rect x="197" y="307" width="6" height="23" fill="#e6e6e6"/><path d="M 158 380 L 181 391.5 L 158 403 Z" fill="#c1c1c1"/><rect x="186" y="380" width="6" height="23" fill="#c1c1c1"/><rect x="196" y="380" width="6" height="23" fill="#c1c1c1"/></g></g></svg>
